<svg xmlns="http://www.w3.org/2000/svg" width="199.979" height="24.052" viewBox="0 0 199.979 24.052"><g fill="#FFF"><path d="M1.28 2.042h4.757V17.73c0 .638.32.957.957.957h1.653v4.002H6.125c-.87 0-1.61-.14-2.22-.42-.608-.28-1.106-.644-1.492-1.088-.387-.445-.672-.938-.855-1.48-.184-.54-.276-1.082-.276-1.623V2.04zM18.304 21.414c-.484.483-.977.84-1.48 1.073-.502.232-1.17.348-2 .348-.793 0-1.504-.12-2.132-.362-.628-.242-1.165-.585-1.61-1.03-.444-.444-.782-.98-1.014-1.61-.232-.627-.348-1.31-.348-2.043 0-.58.1-1.146.304-1.697.203-.55.522-1.034.957-1.45.436-.416.987-.75 1.654-1 .667-.25 1.465-.377 2.393-.377h3.16v-.406c0-.715-.183-1.218-.55-1.508-.368-.29-.967-.435-1.798-.435-.62 0-1.093.078-1.422.232-.33.154-.687.424-1.073.81l-2.958-2.957c.406-.406.802-.74 1.19-1 .385-.26.806-.474 1.26-.638.454-.164.942-.28 1.465-.348.522-.068 1.11-.102 1.77-.102 2.242 0 3.948.464 5.118 1.392 1.17.928 1.754 2.35 1.754 4.263v10.12h-4.64v-1.276zm-.116-4.99H15.78c-.463 0-.83.117-1.1.35-.272.23-.407.53-.407.898 0 .348.13.653.392.914.26.26.652.392 1.174.392.463 0 .826-.034 1.086-.102.26-.067.527-.227.798-.48.31-.29.464-.81.464-1.565v-.405zM27.265 17.527c.33.33.672.58 1.03.754.357.175.71.306 1.06.393.347.087.666.136.956.145.29.01.542.015.755.015.174 0 .377-.015.61-.043.23-.03.453-.082.666-.16.213-.077.393-.18.538-.304.145-.126.217-.295.217-.508 0-.212-.072-.42-.217-.624s-.45-.323-.914-.362l-2.408-.232c-.677-.058-1.29-.184-1.84-.377s-1.026-.474-1.422-.84c-.396-.368-.706-.822-.928-1.364-.222-.542-.333-1.19-.333-1.944 0-.87.18-1.624.537-2.262.357-.638.827-1.174 1.407-1.61.58-.434 1.242-.758 1.986-.97.744-.213 1.503-.32 2.276-.32 1.275 0 2.425.126 3.45.377 1.024.252 1.923.765 2.697 1.538l-2.93 2.93c-.386-.387-.88-.64-1.478-.755-.6-.116-1.21-.174-1.828-.174-.58 0-.98.105-1.204.318-.222.213-.333.406-.333.58 0 .04.005.102.015.188.01.087.043.174.102.26.058.088.154.175.29.262.135.087.338.14.61.16l2.406.232c.812.077 1.518.25 2.117.522.6.27 1.087.62 1.464 1.044s.656.91.84 1.45c.184.542.275 1.122.275 1.74 0 .928-.184 1.72-.55 2.378-.37.658-.862 1.204-1.48 1.64-.62.434-1.334.753-2.146.956-.813.203-1.674.304-2.582.304-.58 0-1.16-.02-1.74-.058-.58-.04-1.155-.13-1.726-.276s-1.13-.367-1.682-.667c-.55-.3-1.098-.72-1.64-1.26l3.075-3.076zM39.792 11.35h-1.42V7.697h1.42V3.23h4.756v4.466h2.465v3.654h-2.465v6.38c0 .638.32.957.957.957h1.508v4.002h-2.378c-.87 0-1.61-.14-2.218-.42s-1.107-.644-1.494-1.088-.672-.938-.855-1.48c-.184-.54-.275-1.082-.275-1.623v-6.73zM49.392 7.087h4.64v1.276c.483-.483 1.054-.845 1.71-1.087.658-.24 1.296-.362 1.915-.362.773 0 1.474.13 2.103.392.628.26 1.193.68 1.696 1.26.677-.598 1.353-1.023 2.03-1.275.676-.25 1.47-.376 2.378-.376.734 0 1.436.116 2.103.348.667.232 1.213.56 1.64.986.675.677 1.13 1.382 1.362 2.117.23.735.347 1.518.347 2.35v9.975H66.56v-9.338c0-.445-.068-.807-.203-1.087-.136-.28-.305-.498-.508-.653-.204-.154-.417-.26-.64-.32-.222-.057-.41-.086-.565-.086s-.343.03-.565.087-.435.165-.638.32c-.203.154-.373.372-.508.652s-.203.643-.203 1.087v9.338h-4.755v-9.338c0-.445-.068-.807-.203-1.087-.136-.28-.305-.498-.508-.653-.203-.154-.416-.26-.638-.32-.223-.057-.41-.086-.566-.086s-.343.03-.565.087-.435.165-.638.32c-.203.154-.373.372-.508.652s-.204.643-.204 1.087v9.338H49.39V7.087zM73.665 3.49c0-.81.28-1.497.84-2.058.562-.56 1.248-.84 2.06-.84s1.498.28 2.06.84c.56.56.84 1.247.84 2.06 0 .81-.28 1.498-.84 2.058-.562.56-1.248.84-2.06.84s-1.498-.28-2.06-.84c-.56-.56-.84-1.247-.84-2.06zm.522 4.206h4.756V22.69h-4.756V7.695zM81.958 7.087h4.64v1.276c.483-.483 1.054-.845 1.71-1.087.658-.24 1.296-.362 1.915-.362.734 0 1.396.116 1.986.348.59.232 1.096.56 1.52.986.678.677 1.108 1.382 1.292 2.117.184.735.276 1.518.276 2.35v9.975h-4.756v-9.338c0-.445-.068-.807-.203-1.087-.137-.28-.306-.498-.51-.653-.202-.154-.415-.26-.637-.32-.223-.057-.41-.086-.566-.086s-.343.03-.565.087-.435.165-.638.32c-.203.154-.373.372-.508.652s-.203.643-.203 1.087v9.338h-4.756V7.087zM98.024 7.087h4.756v9.338c0 .445.067.808.203 1.088s.305.498.508.652c.204.155.417.26.64.32s.41.086.565.086c.154 0 .343-.028.565-.086.222-.058.435-.164.638-.32.203-.154.372-.37.508-.65.135-.28.203-.644.203-1.09V7.088h4.755V22.69h-4.64v-1.277c-.483.483-1.054.846-1.71 1.087-.66.242-1.296.362-1.915.362-.735 0-1.397-.116-1.986-.348-.59-.232-1.098-.56-1.522-.986-.677-.676-1.107-1.382-1.29-2.117-.185-.734-.277-1.517-.277-2.348V7.087zM114.73 11.35h-1.422V7.697h1.42V3.23h4.757v4.466h2.465v3.654h-2.465v6.38c0 .638.32.957.957.957h1.508v4.002h-2.378c-.87 0-1.61-.14-2.218-.42s-1.107-.644-1.494-1.088-.672-.938-.855-1.48c-.184-.54-.275-1.082-.275-1.623v-6.73zM137.03 20.398c-.406.406-.812.76-1.218 1.06-.406.3-.846.555-1.32.768s-1 .373-1.58.48c-.58.105-1.228.158-1.943.158-.87 0-1.746-.102-2.626-.304-.88-.203-1.672-.59-2.378-1.16-.706-.57-1.286-1.377-1.74-2.42-.455-1.045-.682-2.408-.682-4.09 0-1.276.174-2.407.522-3.393.348-.986.83-1.822 1.45-2.51.618-.685 1.353-1.202 2.204-1.55s1.788-.522 2.813-.522c1.12 0 2.122.193 3 .58s1.615.913 2.205 1.58 1.04 1.45 1.35 2.35c.308.898.463 1.86.463 2.885v2.117h-9.337c0 .638.236 1.204.71 1.697.474.493 1.155.74 2.044.74.83 0 1.47-.112 1.914-.334.445-.222.88-.546 1.306-.97l2.844 2.838zm-4.176-7.133c0-.193-.02-.392-.058-.595-.04-.203-.106-.41-.203-.624-.155-.33-.396-.613-.725-.855-.33-.24-.773-.36-1.334-.36s-1.005.12-1.334.36c-.33.243-.57.528-.725.856-.097.213-.165.42-.203.624-.04.203-.058.4-.058.595h4.64zM139.495 19.73c0-.424.077-.82.232-1.188.155-.367.372-.686.653-.957.28-.27.604-.488.97-.652.368-.164.765-.247 1.19-.247s.822.083 1.19.247c.366.165.685.382.956.652.27.27.488.59.653.957.163.368.246.764.246 1.19 0 .424-.083.82-.247 1.188-.166.368-.383.69-.654.972-.27.28-.59.498-.957.652s-.765.232-1.19.232-.822-.078-1.19-.232-.69-.372-.97-.652-.498-.604-.653-.972c-.155-.367-.232-.763-.232-1.19zM159.68 20.862c-.64.638-1.378 1.13-2.22 1.48-.84.347-1.812.52-2.914.52-.677 0-1.42-.096-2.233-.29-.812-.192-1.576-.574-2.29-1.145-.717-.57-1.31-1.377-1.785-2.42-.474-1.045-.71-2.418-.71-4.12s.236-3.073.71-4.117 1.068-1.85 1.784-2.42c.715-.57 1.48-.953 2.29-1.147s1.557-.29 2.234-.29c1.102 0 2.073.174 2.915.522.842.348 1.582.84 2.22 1.48l-3.22 3.218c-.31-.31-.61-.54-.9-.696-.29-.155-.627-.232-1.014-.232-.33 0-.604.048-.827.145-.224.097-.44.25-.653.464-.522.542-.783 1.566-.783 3.074 0 1.508.26 2.533.783 3.074.212.213.43.368.652.464.22.097.497.145.826.145.386 0 .725-.076 1.015-.23.29-.155.59-.387.9-.697l3.22 3.22zM161.738 20.862c-.33-.348-.604-.715-.827-1.102-.222-.386-.395-.812-.52-1.276-.127-.464-.218-.986-.276-1.566s-.087-1.256-.087-2.03c0-.754.03-1.426.087-2.016s.15-1.117.275-1.58c.124-.465.298-.89.52-1.277.223-.387.5-.754.828-1.102.232-.25.507-.493.826-.725.32-.232.682-.444 1.088-.638.406-.193.865-.348 1.377-.464.51-.116 1.086-.174 1.724-.174.638 0 1.213.058 1.726.174.512.116.972.27 1.377.464.406.194.77.406 1.088.638.32.232.594.474.826.725.33.348.605.715.828 1.102.222.387.396.812.522 1.276.125.465.217.992.275 1.582s.087 1.26.087 2.016c0 .773-.03 1.45-.087 2.03s-.15 1.102-.275 1.566c-.126.464-.3.89-.522 1.276-.223.387-.498.754-.827 1.102-.463.503-1.1.962-1.913 1.377-.812.415-1.846.623-3.103.623s-2.29-.208-3.103-.624c-.81-.416-1.448-.875-1.912-1.378zm3.74-2.726c.29.29.716.435 1.277.435s.986-.144 1.276-.434c.31-.31.503-.734.58-1.276.078-.54.117-1.198.117-1.972s-.04-1.43-.116-1.972c-.077-.54-.27-.967-.58-1.276-.29-.29-.715-.435-1.275-.435s-.986.145-1.276.435c-.31.31-.504.735-.58 1.276-.078.542-.117 1.2-.117 1.972s.04 1.43.116 1.972c.076.542.27.968.58 1.276zM176.267 7.087h4.64v1.276c.483-.483 1.054-.845 1.71-1.087.658-.24 1.296-.362 1.915-.362.773 0 1.474.13 2.103.392.628.26 1.193.68 1.696 1.26.678-.598 1.354-1.023 2.03-1.275.677-.25 1.47-.376 2.38-.376.733 0 1.435.116 2.102.348.667.232 1.213.56 1.64.986.675.677 1.13 1.382 1.362 2.117.232.735.348 1.518.348 2.35v9.975h-4.756v-9.338c0-.445-.068-.807-.203-1.087-.136-.28-.305-.498-.508-.653-.203-.154-.416-.26-.638-.32-.223-.057-.41-.086-.566-.086s-.342.03-.564.087-.435.165-.638.32c-.203.154-.373.372-.508.652s-.203.643-.203 1.087v9.338h-4.756v-9.338c0-.445-.067-.807-.202-1.087-.136-.28-.305-.498-.508-.653-.203-.154-.416-.26-.638-.32-.223-.057-.41-.086-.566-.086s-.343.03-.565.087-.434.165-.637.32c-.203.154-.373.372-.508.652s-.203.643-.203 1.087v9.338h-4.756V7.087z"/></g></svg>